<svg width="22" height="17" viewBox="0 0 22 17" fill="none" xmlns="http://www.w3.org/2000/svg">
<path fill-rule="evenodd" clip-rule="evenodd" d="M21.5471 1.90623C20.7741 2.22823 19.9431 2.44323 19.0721 2.54123C19.9621 2.04123 20.6451 1.24923 20.9671 0.30723C20.1331 0.76923 19.2111 1.10523 18.2291 1.28723C17.4441 0.50123 16.3231 0.0112305 15.0841 0.0112305C12.7041 0.0112305 10.7731 1.82023 10.7731 4.05023C10.7731 4.36723 10.8111 4.67623 10.8851 4.97123C7.30306 4.80223 4.12706 3.19423 2.00106 0.75123C1.63006 1.34823 1.41806 2.04123 1.41806 2.78223C1.41806 4.18223 2.17906 5.42023 3.33506 6.14423C2.62906 6.12223 1.96506 5.94123 1.38306 5.63823C1.38306 5.65623 1.38306 5.67123 1.38306 5.69023C1.38306 7.64723 2.86806 9.27923 4.84006 9.65023C4.47906 9.74223 4.09706 9.79023 3.70506 9.79023C3.42706 9.79023 3.15706 9.76623 2.89406 9.72023C3.44206 11.3232 5.03406 12.4922 6.92006 12.5252C5.44506 13.6082 3.58706 14.2532 1.56706 14.2532C1.21906 14.2532 0.876063 14.2342 0.539062 14.1972C2.44606 15.3422 4.71206 16.0122 7.14606 16.0122C15.0741 16.0122 19.4091 9.85623 19.4091 4.51923C19.4091 4.34323 19.4041 4.17023 19.3961 3.99623C20.2381 3.42623 20.9691 2.71523 21.5471 1.90623Z" fill="white"/>
</svg>
