<svg width="650" height="16" viewBox="0 0 650 16" fill="none" xmlns="http://www.w3.org/2000/svg">
<path d="M636.693 12.9449C635.889 13.1465 635.401 13.9612 635.603 14.7648C635.804 15.5683 636.619 16.0563 637.423 15.8548L636.693 12.9449ZM637.058 14.3999C637.423 15.8548 637.423 15.8546 637.424 15.8544C637.425 15.8542 637.426 15.8539 637.428 15.8536C637.43 15.8529 637.434 15.852 637.438 15.8509C637.447 15.8486 637.46 15.8453 637.477 15.841C637.51 15.8325 637.559 15.82 637.621 15.8038C637.745 15.7713 637.923 15.7237 638.147 15.6623C638.594 15.5394 639.223 15.3603 639.952 15.1346C641.399 14.6864 643.288 14.0407 644.952 13.27C645.784 12.8851 646.596 12.452 647.283 11.9751C647.941 11.5178 648.623 10.9261 649.02 10.1779C649.478 9.31763 649.527 8.28885 648.913 7.34122C648.391 6.53462 647.487 5.94689 646.437 5.47838C644.3 4.5252 640.682 3.69288 635.092 2.99678C629.461 2.29557 621.701 1.71882 611.189 1.33792C590.164 0.576025 558.045 0.594847 509.773 1.99416L509.86 4.9929C558.106 3.59434 590.151 3.57751 611.081 4.33595C621.547 4.71521 629.211 5.28763 634.721 5.97379C640.273 6.66507 643.511 7.45834 645.215 8.21818C646.085 8.60619 646.347 8.89684 646.395 8.97161C646.402 8.98261 646.371 8.93304 646.369 8.84248C646.368 8.75979 646.393 8.72928 646.372 8.76922C646.308 8.88966 646.09 9.15068 645.571 9.51134C645.08 9.85255 644.437 10.2027 643.692 10.5477C642.204 11.2366 640.461 11.8365 639.064 12.2688C638.371 12.4834 637.775 12.6534 637.352 12.7695C637.141 12.8275 636.974 12.872 636.861 12.9016C636.804 12.9164 636.761 12.9275 636.733 12.9348C636.718 12.9384 636.708 12.9411 636.701 12.9428C636.698 12.9437 636.696 12.9443 636.694 12.9446C636.694 12.9448 636.693 12.9449 636.693 12.945C636.693 12.945 636.693 12.9449 637.058 14.3999ZM509.773 1.99416C413.27 4.79163 286.077 6.60262 183.003 7.71424C131.468 8.27003 85.9647 8.65096 53.3452 8.89295C37.0356 9.01394 23.9469 9.1002 14.9358 9.1562C10.4302 9.18421 6.94403 9.20465 4.5843 9.21809C3.40444 9.22481 2.50618 9.22978 1.90292 9.23306C1.60129 9.23471 1.37341 9.23593 1.22095 9.23675C1.14472 9.23715 1.08735 9.23746 1.04904 9.23766C1.02989 9.23776 1.0155 9.23784 1.0059 9.23789C1.0011 9.23791 0.997506 9.23793 0.995104 9.23794C0.992708 9.23796 0.991514 9.23796 0.999346 10.7379C1.00718 12.2379 1.00839 12.2379 1.01081 12.2379C1.01322 12.2379 1.01684 12.2379 1.02165 12.2378C1.03127 12.2378 1.04569 12.2377 1.06487 12.2376C1.10324 12.2374 1.16067 12.2371 1.23696 12.2367C1.38954 12.2359 1.61753 12.2347 1.91928 12.233C2.52278 12.2297 3.42128 12.2248 4.60139 12.218C6.96162 12.2046 10.4483 12.1842 14.9544 12.1561C23.9666 12.1001 37.0565 12.0139 53.3675 11.8929C85.9894 11.6509 131.496 11.2699 183.036 10.7141C286.112 9.60242 413.328 7.79121 509.86 4.9929L509.773 1.99416Z" fill="#A5A6F6"/>
</svg>
